<svg fill="none" xmlns="http://www.w3.org/2000/svg" viewBox="0 0 24 24"><path d="M.864 18.807v-5.239c0-.838.226-1.48.677-1.924.451-.452 1.096-.677 1.934-.677h17.05c.844 0 1.489.225 1.934.677.451.445.677 1.086.677 1.924v5.239c0 .228-.068.41-.202.545-.135.134-.317.202-.545.202h-.528a.755.755 0 0 1-.545-.202c-.134-.135-.202-.317-.202-.545v-1.301a2.025 2.025 0 0 1-.255.035 7.187 7.187 0 0 1-.342.009H3.483c-.105 0-.22-.003-.342-.009a2.425 2.425 0 0 1-.255-.035v1.3c0 .23-.07.41-.211.546a.725.725 0 0 1-.536.202H1.61c-.228 0-.41-.068-.545-.202-.134-.135-.202-.317-.202-.545Zm2.11-9.097V7.187c0-.814.21-1.426.632-1.836.422-.416 1.029-.624 1.82-.624h13.166c.785 0 1.389.208 1.81.624.428.41.642 1.022.642 1.837V9.71h-2.241V8.444c0-.41-.114-.723-.343-.94-.223-.217-.554-.325-.993-.325H14.39c-.44 0-.774.108-1.002.325-.223.217-.334.53-.334.94V9.71H11.06V8.444c0-.41-.112-.723-.334-.94-.217-.217-.534-.325-.95-.325H6.498c-.416 0-.735.108-.958.325-.223.217-.334.53-.334.94V9.71H2.974Z" fill="currentColor"/></svg>