<svg xmlns="http://www.w3.org/2000/svg" fill="none" viewBox="0 0 64 64"><path fill="currentColor" d="M13.953 24.188c-.11.437-.078.75.094.937.187.172.508.242.96.21 1.298-.077 2.72-.155 4.266-.233 1.547-.079 3.344-.141 5.391-.188 2.063-.047 4.508-.07 7.336-.07 2.828 0 5.266.023 7.313.07 2.062.047 3.867.11 5.414.188 1.562.078 2.992.156 4.289.234.453.031.765-.04.937-.211.188-.188.227-.5.117-.938a42.703 42.703 0 0 0-.75-2.695 33.389 33.389 0 0 0-.89-2.672c-.297-.828-.578-1.46-.844-1.898-.328-.547-.68-.953-1.055-1.219-.375-.265-.883-.445-1.523-.539-.875-.14-2.36-.242-4.453-.305-2.078-.062-4.93-.093-8.555-.093s-6.477.039-8.555.117c-2.078.062-3.562.156-4.453.281-.625.094-1.133.274-1.523.54-.39.265-.742.671-1.055 1.218-.25.453-.531 1.094-.844 1.922a43.101 43.101 0 0 0-.914 2.648 27.718 27.718 0 0 0-.703 2.695Zm1.149 17.32c1.078 0 1.976-.36 2.695-1.078.719-.735 1.078-1.633 1.078-2.696 0-1.078-.36-1.976-1.078-2.695-.719-.719-1.617-1.078-2.695-1.078-1.079 0-1.977.36-2.696 1.078-.719.719-1.078 1.617-1.078 2.695 0 1.063.36 1.961 1.078 2.696.719.718 1.617 1.078 2.696 1.078Zm10.71-.938h12.399c.797 0 1.445-.25 1.945-.75s.75-1.156.75-1.968c0-.797-.25-1.446-.75-1.946s-1.148-.75-1.945-.75H25.813c-.813 0-1.47.25-1.97.75s-.75 1.149-.75 1.946c0 .812.25 1.468.75 1.968s1.157.75 1.97.75Zm23.086.938c1.079 0 1.977-.36 2.696-1.078.718-.735 1.078-1.633 1.078-2.696 0-1.078-.36-1.976-1.078-2.695-.719-.719-1.617-1.078-2.696-1.078-1.062 0-1.953.36-2.671 1.078-.72.719-1.079 1.617-1.079 2.695 0 1.063.36 1.961 1.079 2.696.718.718 1.609 1.078 2.671 1.078ZM32 47.836c-1.969 0-4.047-.023-6.234-.07-2.188-.047-4.336-.11-6.446-.188-2.11-.094-4.047-.195-5.812-.305-1.75-.109-3.18-.226-4.29-.351-1.577-.188-2.796-.711-3.655-1.57-.86-.86-1.29-2.04-1.29-3.54v-4.124c0-1.329.094-2.485.282-3.47.203-1 .515-1.929.937-2.788.438-.875 1.024-1.782 1.758-2.72l1.969-2.554a47.805 47.805 0 0 1 1.031-4.172c.406-1.375.805-2.609 1.195-3.703.39-1.093.727-1.93 1.008-2.508.625-1.328 1.524-2.382 2.695-3.164 1.172-.796 2.54-1.289 4.102-1.476.516-.063 1.39-.117 2.625-.164 1.25-.047 2.742-.086 4.477-.117 1.75-.032 3.632-.047 5.648-.047 2.016 0 3.89.015 5.625.047 1.75.015 3.242.046 4.477.093 1.25.047 2.14.11 2.671.188 1.547.203 2.907.695 4.079 1.476 1.187.782 2.093 1.836 2.718 3.164.266.579.594 1.415.985 2.508a49.757 49.757 0 0 1 1.195 3.703c.406 1.375.75 2.766 1.031 4.172l1.992 2.555c.72.937 1.297 1.844 1.735 2.719.437.86.75 1.789.937 2.789.188.984.282 2.14.282 3.468v4.126c0 1.5-.43 2.68-1.29 3.539-.843.859-2.062 1.382-3.656 1.57-1.11.125-2.547.242-4.312.351-1.75.11-3.68.211-5.79.305-2.109.078-4.257.14-6.445.188-2.187.047-4.265.07-6.234.07ZM7.39 54.28c-.89 0-1.632-.297-2.226-.89-.594-.594-.89-1.328-.89-2.203V41.085l8.976 4.266v5.836c0 .874-.305 1.609-.914 2.203-.594.593-1.328.89-2.203.89H7.39Zm46.477 0c-.875 0-1.61-.297-2.203-.89-.594-.594-.89-1.328-.89-2.203v-5.836l8.953-4.266v10.102c0 .874-.297 1.609-.891 2.203-.594.593-1.328.89-2.203.89h-2.766Z"/></svg>