<svg xmlns="http://www.w3.org/2000/svg" fill="none" viewBox="0 0 24 24"><path fill="currentColor" d="M16.058 7.943H7.943a1.16 1.16 0 0 1-1.16-1.16V3.885a.58.58 0 0 1 1.16 0v1.739h1.159v-1.16a1.16 1.16 0 1 1 2.318 0v1.16h1.16v-1.16a1.16 1.16 0 1 1 2.318 0v1.16h1.16V3.885a.58.58 0 0 1 1.159 0v2.898c0 .64-.52 1.16-1.16 1.16Zm3.477 12.172c0 .32-.26.58-.58.58H5.046a.58.58 0 0 1 0-1.16h.579c.64 0 1.16-.519 1.16-1.159 0 0 1.159-6.956 1.159-8.115 0-.64.519-1.16 1.159-1.16h5.796c.64 0 1.16.52 1.16 1.16 0 1.16 1.159 8.115 1.159 8.115 0 .64.519 1.16 1.159 1.16h.58a.58.58 0 0 1 .58.567v.012Zm-5.796-4.637a1.739 1.739 0 0 0-3.478 0v4.057h3.478v-4.057Z"/></svg>