<svg xmlns="http://www.w3.org/2000/svg" fill="none" viewBox="0 0 24 24"><path fill="currentColor" d="m17.417 11.65-3.974-2.384a.5.5 0 0 1-.243-.429V7.7a.5.5 0 0 1 .5-.5H15a.6.6 0 0 0 .6-.6V5.4a.6.6 0 0 0-.6-.6h-1.3a.5.5 0 0 1-.5-.5V3a.6.6 0 0 0-.6-.6h-1.2a.6.6 0 0 0-.6.6v1.3a.5.5 0 0 1-.5.5H9a.6.6 0 0 0-.6.6v1.2a.6.6 0 0 0 .6.6h1.3a.5.5 0 0 1 .5.5v1.137a.5.5 0 0 1-.243.429L6.583 11.65A1.2 1.2 0 0 0 6 12.68v8.42a.5.5 0 0 0 .5.5h2.6a.5.5 0 0 0 .5-.5V18a2.4 2.4 0 1 1 4.8 0v3.1a.5.5 0 0 0 .5.5h2.6a.5.5 0 0 0 .5-.5v-8.42a1.2 1.2 0 0 0-.583-1.03ZM2.048 17.25V21a.6.6 0 0 0 .6.6H4.3a.5.5 0 0 0 .5-.5V15.16c0-.36-.325-.527-.602-.3-.731.602-1.86 1.59-1.952 1.729-.13.196-.198.426-.198.66ZM21.952 21V17.25c0-.235-.07-.465-.198-.66-.092-.14-1.221-1.128-1.952-1.73-.277-.227-.602-.06-.602.3V21.1a.5.5 0 0 0 .5.5h1.652a.6.6 0 0 0 .6-.6Z"/></svg>