<svg fill="none" xmlns="http://www.w3.org/2000/svg" viewBox="0 0 24 24"><path d="M6.893 12.994a.663.663 0 0 1-.489-.195.662.662 0 0 1-.195-.489.65.65 0 0 1 .195-.478.663.663 0 0 1 .489-.195h4.423V5.729a.65.65 0 0 1 .196-.479.65.65 0 0 1 .478-.195c.195 0 .358.065.489.195.13.13.195.29.195.479v6.581a.662.662 0 0 1-.195.489.663.663 0 0 1-.489.195H6.893ZM12 21.9c-1.36 0-2.643-.26-3.848-.78a10.197 10.197 0 0 1-3.173-2.16 10.198 10.198 0 0 1-2.159-3.173 9.59 9.59 0 0 1-.78-3.848c0-1.36.26-2.64.78-3.837A10.25 10.25 0 0 1 4.97 4.918 10.198 10.198 0 0 1 8.143 2.76a9.59 9.59 0 0 1 3.847-.781c1.36 0 2.643.26 3.848.78 1.204.522 2.266 1.241 3.184 2.159.918.918 1.637 1.98 2.158 3.184a9.521 9.521 0 0 1 .78 3.838 9.59 9.59 0 0 1-.78 3.847 10.197 10.197 0 0 1-2.159 3.174 10.166 10.166 0 0 1-3.183 2.158A9.52 9.52 0 0 1 12 21.9Zm0-1.66c1.152 0 2.23-.215 3.232-.644a8.45 8.45 0 0 0 2.647-1.778 8.234 8.234 0 0 0 1.777-2.646c.43-1.003.645-2.08.645-3.232 0-1.153-.215-2.23-.645-3.233a8.365 8.365 0 0 0-1.787-2.646 8.095 8.095 0 0 0-2.646-1.778 8.119 8.119 0 0 0-3.233-.644c-1.152 0-2.23.215-3.232.644A8.122 8.122 0 0 0 6.12 6.061a8.45 8.45 0 0 0-1.777 2.646 8.226 8.226 0 0 0-.635 3.232c0 1.153.212 2.23.635 3.233a8.451 8.451 0 0 0 1.777 2.646 8.45 8.45 0 0 0 2.647 1.778c1.002.43 2.08.644 3.232.644Z" fill="currentColor"/></svg>