<svg fill="none" xmlns="http://www.w3.org/2000/svg" viewBox="0 0 24 24"><path d="M12 22C6.54 22 2 17.46 2 12 2 6.53 6.53 2 11.99 2 17.46 2 22 6.53 22 12c0 5.46-4.53 10-10 10Zm0-1.667A8.301 8.301 0 0 0 20.333 12a8.31 8.31 0 0 0-8.343-8.333c-4.627 0-8.314 3.706-8.314 8.333A8.293 8.293 0 0 0 12 20.333Zm-.088-11.725a1.274 1.274 0 0 1-1.275-1.284c0-.716.569-1.285 1.275-1.285.715 0 1.274.569 1.274 1.285 0 .715-.559 1.284-1.274 1.284Zm-1.628 8.882c-.402 0-.715-.294-.715-.696 0-.382.313-.686.715-.686H11.5v-4.49h-1.049c-.402 0-.716-.295-.716-.696 0-.383.314-.687.716-.687h1.843c.5 0 .765.353.765.883v4.99h1.216c.402 0 .715.304.715.686 0 .402-.313.696-.716.696h-3.99Z" fill="currentColor"/></svg>