<svg xmlns="http://www.w3.org/2000/svg" fill="none" viewBox="0 0 24 24"><path fill="currentColor" d="M3.396 12.584c-.299-.006-.546-.068-.742-.186a1.21 1.21 0 0 1-.44-.468 1.178 1.178 0 0 1-.107-.615c.02-.222.095-.427.225-.616a1.38 1.38 0 0 1 .576-.459l15.606-7.236c.345-.156.66-.221.947-.195.293.02.534.117.723.293.195.169.312.393.351.673.04.28-.023.6-.185.957L13.133 20.25c-.13.28-.296.491-.498.635-.195.15-.404.234-.625.254-.222.026-.43-.01-.625-.108a1.123 1.123 0 0 1-.479-.43c-.117-.195-.176-.439-.176-.732l-.02-7.06c0-.13-.064-.196-.194-.196l-7.12-.029Z"/></svg>