<svg xmlns="http://www.w3.org/2000/svg" fill="none" viewBox="0 0 24 24"><path fill="currentColor" d="M2.947 21.207c-.351 0-.625-.098-.82-.293-.189-.195-.283-.475-.283-.84V6.94c0-.332.068-.615.205-.85.137-.24.348-.442.635-.605l5.078-2.89a1.93 1.93 0 0 1 1.006-.274c.358 0 .686.091.986.274l5.303 3.252 5.175-2.881a2.58 2.58 0 0 1 .44-.186c.13-.045.257-.068.38-.068.352 0 .622.098.811.293.196.195.293.472.293.83v13.154c0 .326-.068.609-.205.85-.137.234-.351.433-.644.596l-5.108 2.9c-.293.17-.618.254-.976.254-.378 0-.743-.098-1.094-.293l-5.4-3.027-4.971 2.675c-.156.091-.3.157-.43.196a1.15 1.15 0 0 1-.38.068Zm5.147-4.492V4.245l-.176.097c-.052.032-.11.065-.176.097L3.738 6.783a.638.638 0 0 0-.254.235.63.63 0 0 0-.068.302v11.71c0 .104.042.155.127.155a.374.374 0 0 0 .146-.048l4.405-2.422Zm1.572.156 4.238 2.393c.072.039.143.075.215.107l.215.117V7.281L9.979 4.625a1.89 1.89 0 0 0-.157-.088 1.89 1.89 0 0 0-.156-.088v12.422Zm6.24 2.793.215-.117c.078-.04.153-.082.225-.127l3.916-2.276a.569.569 0 0 0 .244-.234.62.62 0 0 0 .078-.312V4.888c0-.051-.013-.09-.04-.117-.019-.026-.051-.039-.097-.039a.38.38 0 0 0-.136.05l-4.405 2.402v12.48Z"/></svg>