<svg xmlns="http://www.w3.org/2000/svg" fill="none" viewBox="0 0 24 24"><path fill="currentColor" d="M12.158 3.765a.5.5 0 0 0-.316 0L4.054 6.36a.5.5 0 0 0-.342.474v.521a.5.5 0 0 0 .5.5h15.576a.5.5 0 0 0 .5-.5v-.52a.5.5 0 0 0-.342-.475l-7.788-2.596ZM4.212 9.237a.5.5 0 0 0-.5.5v.382a.5.5 0 0 0 .5.5h.382a.5.5 0 0 1 .5.5v5.906a.5.5 0 0 1-.5.5H4.02a.5.5 0 0 0-.447.277l-.881 1.762a.5.5 0 0 0 .447.724h17.72a.5.5 0 0 0 .447-.724l-.881-1.762a.5.5 0 0 0-.447-.277h-.572a.5.5 0 0 1-.5-.5V11.12a.5.5 0 0 1 .5-.5h.38a.5.5 0 0 0 .5-.5v-.382a.5.5 0 0 0-.5-.5H4.213Zm5.025 1.382c.687 0 1.382.735 1.382 1.38v5.026a.5.5 0 0 1-.5.5H8.356a.5.5 0 0 1-.5-.5V12c0-.729.694-1.381 1.381-1.381Zm5.526 0c.695 0 1.38.652 1.38 1.38v5.026a.5.5 0 0 1-.5.5h-1.762a.5.5 0 0 1-.5-.5V12c0-.729.686-1.381 1.382-1.381Z"/></svg>