<svg fill="none" xmlns="http://www.w3.org/2000/svg" viewBox="0 0 24 24"><path d="M11.537 14.545a.7.7 0 0 1-.694-.686V4.833l.053-1.318-.598.624L8.97 5.562a.66.66 0 0 1-.484.211.607.607 0 0 1-.633-.624c0-.184.07-.325.203-.457l2.97-2.865c.185-.176.334-.237.51-.237.185 0 .334.061.51.237l2.97 2.865c.132.132.212.273.212.457 0 .36-.282.624-.642.624a.628.628 0 0 1-.475-.21l-1.336-1.424-.588-.624.052 1.318v9.026c0 .37-.325.686-.703.686Zm-5.036 6.882c-1.837 0-2.76-.914-2.76-2.725V9.931c0-1.81.923-2.725 2.76-2.725h2.645v1.415H6.52c-.88 0-1.363.475-1.363 1.389v8.613c0 .914.484 1.389 1.363 1.389h10.037c.87 0 1.37-.475 1.37-1.389V10.01c0-.914-.5-1.389-1.37-1.389h-2.62V7.206h2.646c1.837 0 2.76.914 2.76 2.725v8.771c0 1.81-.923 2.725-2.76 2.725H6.501Z" fill="currentColor"/></svg>