<svg xmlns="http://www.w3.org/2000/svg" fill="none" viewBox="0 0 25 24"><path fill="currentColor" d="M5.445 19.055c-1.633 0-2.453-.805-2.453-2.414V7.094c0-1.61.82-2.422 2.453-2.422h13.516c1.64 0 2.453.812 2.453 2.422v9.547c0 1.609-.812 2.414-2.453 2.414H5.445Zm10.524-7.196 4.187 3.93V7.164c0-.812-.437-1.234-1.21-1.234H5.46c-.781 0-1.211.422-1.211 1.234v8.625l2.328-2.101c.32-.297.656-.438 1.008-.438.367 0 .726.148 1.055.445L10.086 15l3.531-3.156c.36-.32.742-.469 1.172-.469.422 0 .836.164 1.18.484Zm-7.156.079a1.847 1.847 0 0 1-1.844-1.844c0-1.008.828-1.844 1.843-1.844a1.85 1.85 0 0 1 1.836 1.844 1.845 1.845 0 0 1-1.835 1.844Z"/></svg>