<svg xmlns="http://www.w3.org/2000/svg" fill="none" viewBox="0 0 64 64"><path fill="currentColor" d="M15.031 37.852c-.984.265-1.875.336-2.672.21a3.431 3.431 0 0 1-1.992-1.124l-8.226-9.235A1.006 1.006 0 0 1 1.859 27c.016-.266.141-.5.375-.703l.68-.633c.313-.281.61-.453.89-.516.298-.062.602-.039.915.07l13.734 4.876-4.594-.14 11.86-4.079-.446 2.227-13.43-14.25c-.25-.266-.343-.54-.28-.82a.728.728 0 0 1 .515-.563l1.617-.492c.657-.188 1.313-.133 1.97.164l19.64 9.28c.562.267 1.047.415 1.453.446.422.016.875-.055 1.36-.21l14.085-4.829a11.689 11.689 0 0 1 4.031-.633c1.344.016 2.524.282 3.54.797 1.03.5 1.734 1.258 2.109 2.274.406 1.109.351 2.195-.164 3.257-.516 1.047-1.352 1.977-2.508 2.79-1.156.812-2.484 1.421-3.984 1.828L15.03 37.85ZM6.453 53.555c-.516 0-.96-.188-1.336-.563-.36-.375-.539-.82-.539-1.336 0-.515.18-.96.54-1.336.374-.36.82-.539 1.335-.539h50.578c.516 0 .961.18 1.336.54.375.374.563.82.563 1.335 0 .516-.188.961-.563 1.336-.375.375-.82.563-1.336.563H6.453Z"/></svg>