<svg xmlns="http://www.w3.org/2000/svg" fill="none" viewBox="0 0 24 24"><path fill="currentColor" d="M12.006 5.09a.864.864 0 0 1-.863-.862V2.095c0-.477.386-.864.863-.864.466 0 .853.387.853.864v2.132a.862.862 0 0 1-.853.864Zm4.86 2.034a.869.869 0 0 1 0-1.21l1.529-1.528a.869.869 0 0 1 1.21 0 .88.88 0 0 1 0 1.22l-1.518 1.518a.871.871 0 0 1-1.22 0Zm-9.741 0a.869.869 0 0 1-1.21 0L4.396 5.597c-.318-.318-.318-.873.01-1.21.327-.328.882-.318 1.21 0l1.518 1.527c.317.327.317.893-.01 1.21Zm4.87 9.931c-2.757 0-5.049-2.292-5.049-5.06 0-2.777 2.292-5.07 5.05-5.07s5.05 2.293 5.05 5.07c0 2.768-2.292 5.06-5.05 5.06Zm6.886-5.06c0-.466.397-.863.863-.863h2.133c.466 0 .853.397.853.863a.86.86 0 0 1-.853.854h-2.133a.868.868 0 0 1-.863-.854Zm-13.76 0a.868.868 0 0 1-.863.854H2.125a.86.86 0 0 1-.854-.854c0-.466.387-.863.854-.863h2.133c.466 0 .863.397.863.863Zm2.014 4.871a.878.878 0 0 1-.01 1.21l-1.518 1.529a.9.9 0 0 1-1.22-.01.878.878 0 0 1 .01-1.21l1.517-1.519a.9.9 0 0 1 1.22 0Zm9.732 0a.888.888 0 0 1 1.21 0l1.528 1.528a.869.869 0 0 1 0 1.21.888.888 0 0 1-1.21.01l-1.528-1.537a.869.869 0 0 1 0-1.21ZM12.006 18.9a.86.86 0 0 1 .853.853v2.143a.86.86 0 0 1-.853.854.862.862 0 0 1-.863-.854v-2.143c0-.466.386-.853.863-.853Z"/></svg>