<svg xmlns="http://www.w3.org/2000/svg" fill="none" viewBox="0 0 64 64"><path fill="#000" d="M19.32 55.594c-1.234 0-2.312-.274-3.234-.82-.922-.532-1.64-1.29-2.156-2.274-.5-.984-.75-2.133-.75-3.445v-15.61c0-2.718.14-5.375.422-7.968.28-2.594.648-4.844 1.101-6.75.485-2.11 1.399-3.86 2.742-5.25 1.36-1.407 3.102-2.22 5.227-2.438.547-.047 1.664-.125 3.351-.234 1.688-.125 3.68-.188 5.977-.188 1.5 0 2.883.031 4.148.094 1.282.047 2.375.11 3.282.187.906.063 1.539.11 1.898.141 2.14.219 3.883 1.031 5.227 2.438 1.36 1.39 2.273 3.14 2.742 5.25.469 1.906.844 4.164 1.125 6.773.281 2.61.422 5.281.422 8.016v15.539c0 1.312-.258 2.46-.774 3.445-.5.984-1.21 1.742-2.133 2.273-.921.547-2.007.82-3.257.82H19.32ZM32 40.172c2.016.016 4.14-.024 6.375-.117a113.27 113.27 0 0 0 6.07-.446c.688-.078 1.172-.32 1.453-.726.282-.406.422-.93.422-1.57v-4.196c0-1.5-.039-2.86-.117-4.078a42.788 42.788 0 0 0-.305-3.187c-.125-.891-.25-1.586-.375-2.086-.109-.5-.32-.914-.632-1.243-.313-.328-.727-.523-1.243-.585a78.671 78.671 0 0 0-4.523-.352c-1.766-.11-4.14-.156-7.125-.14-2.969.015-5.344.07-7.125.163a68.343 68.343 0 0 0-4.523.328c-.516.063-.93.258-1.243.586-.312.329-.523.743-.632 1.243-.11.5-.227 1.195-.352 2.086-.125.89-.234 1.953-.328 3.187a64.25 64.25 0 0 0-.117 4.078v4.196c0 .624.14 1.148.422 1.57.296.406.78.648 1.453.726 1.218.157 2.945.29 5.18.399 2.25.094 4.671.148 7.265.164Zm-10.29 9.984c.892 0 1.634-.289 2.227-.867.594-.594.891-1.344.891-2.25 0-.89-.297-1.625-.89-2.203-.579-.594-1.32-.89-2.227-.89-.89 0-1.625.296-2.203.89-.563.578-.844 1.312-.844 2.203 0 .906.281 1.656.844 2.25.578.578 1.312.867 2.203.867Zm20.532.024c.86 0 1.586-.297 2.18-.89.594-.61.89-1.36.89-2.25 0-.876-.296-1.61-.89-2.204-.578-.61-1.305-.914-2.18-.914-.906 0-1.656.305-2.25.914-.594.594-.89 1.328-.89 2.203 0 .89.296 1.64.89 2.25.594.594 1.344.89 2.25.89ZM26.305 17.625h11.414c.406 0 .734-.125.984-.375s.375-.578.375-.984c0-.422-.125-.75-.375-.985-.25-.25-.578-.375-.984-.375H26.305c-.407 0-.742.125-1.008.375-.25.235-.375.563-.375.985 0 .406.125.734.375.984.265.25.601.375 1.008.375ZM12.665 6.398c0-.343.108-.695.327-1.054.219-.36.5-.696.844-1.008 1-.969 2.086-1.64 3.258-2.016 1.187-.39 2.5-.586 3.937-.586h21.961c1.438 0 2.742.196 3.914.586 1.188.375 2.282 1.047 3.282 2.016.328.312.601.648.82 1.008.219.36.328.71.328 1.054 0 .47-.156.844-.469 1.125-.297.282-.664.422-1.101.422a1.65 1.65 0 0 1-.703-.164 2.178 2.178 0 0 1-.657-.562c-.656-.828-1.39-1.414-2.203-1.758-.812-.344-1.883-.516-3.21-.516H21.03c-1.343 0-2.422.172-3.234.516-.813.344-1.547.93-2.203 1.758a1.94 1.94 0 0 1-.633.562 1.65 1.65 0 0 1-.703.164c-.438 0-.813-.14-1.125-.422-.313-.28-.469-.656-.469-1.125Zm17.624 5.415h-4.312l-5.86-7.149h4.336l5.836 7.149Zm3.422 0 5.836-7.149h4.336l-5.86 7.149h-4.312ZM20.023 55.288H24.5l-4.594 7.406c-.328.516-.781.774-1.36.774h-1.312c-.375 0-.68-.102-.914-.305a1.282 1.282 0 0 1-.398-.773c-.031-.313.055-.625.258-.938l3.843-6.164Zm19.5 0H44l3.797 6.164c.203.313.289.625.258.938-.032.312-.157.57-.375.773-.22.203-.508.305-.867.305H45.5c-.594 0-1.055-.258-1.383-.774l-4.594-7.406Z"/></svg>