<svg xmlns="http://www.w3.org/2000/svg" fill="none" viewBox="0 0 24 24"><path fill="currentColor" d="M18.205 20.816h-1.161a.5.5 0 0 1-.485-.379l-1.423-5.692a.501.501 0 0 0-.131-.232l-2.651-2.65a.5.5 0 0 0-.707 0l-2.651 2.65a.5.5 0 0 0-.132.232l-1.423 5.692a.5.5 0 0 1-.485.379h-1.16a.776.776 0 0 0 0 1.55h12.409a.776.776 0 0 0 0-1.55Zm-5.43-.5a.5.5 0 0 1-.5.5h-.55a.5.5 0 0 1-.5-.5v-1.83c0-.427.345-.773.771-.773.43 0 .78.35.78.78v1.823Z"/><path fill="currentColor" d="m6.149 11.93 3.378-3.377a.5.5 0 0 1 .353-.147h.362a.5.5 0 0 0 .353-.146l.63-.63-.63-.628a.5.5 0 0 0-.353-.147H9.88a.5.5 0 0 1-.353-.146L6.149 3.33a.5.5 0 0 1 0-.707l.844-.845a.5.5 0 0 1 .707 0l3.378 3.378a.5.5 0 0 1 .147.354v.361a.5.5 0 0 0 .146.354l.63.63.628-.63a.5.5 0 0 0 .147-.354v-.361a.5.5 0 0 1 .146-.354L16.3 1.78a.5.5 0 0 1 .707 0l.844.844a.5.5 0 0 1 0 .707l-3.378 3.378a.5.5 0 0 1-.353.146h-.362a.5.5 0 0 0-.353.146l-.63.63.63.629a.5.5 0 0 0 .353.146h.362a.5.5 0 0 1 .353.147l3.378 3.378a.5.5 0 0 1 0 .707l-.844.844a.5.5 0 0 1-.707 0l-3.378-3.378a.5.5 0 0 1-.146-.354V9.39a.5.5 0 0 0-.147-.354L12 8.406l-.629.63a.5.5 0 0 0-.146.353v.361a.5.5 0 0 1-.147.354L7.7 13.482a.5.5 0 0 1-.707 0l-.844-.844a.5.5 0 0 1 0-.707Z"/></svg>